<?xml version="1.0" encoding="UTF-8" standalone="no"?>
<!-- Created with Inkscape (http://www.inkscape.org/) -->

<svg
   width="800"
   height="800"
   viewBox="0 0 211.66667 211.66667"
   version="1.1"
   id="svg1"
   xml:space="preserve"
   inkscape:version="1.4.3 (0d15f75, 2025-12-25)"
   sodipodi:docname="ww.svg"
   xmlns:inkscape="http://www.inkscape.org/namespaces/inkscape"
   xmlns:sodipodi="http://sodipodi.sourceforge.net/DTD/sodipodi-0.dtd"
   xmlns="http://www.w3.org/2000/svg"
   xmlns:svg="http://www.w3.org/2000/svg"><sodipodi:namedview
     id="namedview1"
     pagecolor="#ffffff"
     bordercolor="#000000"
     borderopacity="0.25"
     inkscape:showpageshadow="2"
     inkscape:pageopacity="0.0"
     inkscape:pagecheckerboard="0"
     inkscape:deskcolor="#d1d1d1"
     inkscape:document-units="mm"
     inkscape:zoom="0.72960859"
     inkscape:cx="340.59358"
     inkscape:cy="455.7238"
     inkscape:window-width="1920"
     inkscape:window-height="991"
     inkscape:window-x="-9"
     inkscape:window-y="-9"
     inkscape:window-maximized="1"
     inkscape:current-layer="layer1"><inkscape:page
       x="0"
       y="0"
       width="211.66667"
       height="211.66667"
       id="page2"
       margin="0"
       bleed="0" /></sodipodi:namedview><defs
     id="defs1" /><g
     inkscape:label="Warstwa 1"
     inkscape:groupmode="layer"
     id="layer1"><path
       style="fill:#000000"
       d="m 100.76951,192.25816 c -2.896984,-4.07049 -5.949064,-8.54501 -6.782404,-9.94337 -1.2818,-2.1509 -3.68777,-7.14464 -4.27983,-8.88309 -0.0938,-0.27549 -0.23122,-0.44026 -0.30532,-0.36616 -0.19689,0.19688 0.36636,8.6283 0.78259,11.71496 0.19624,1.45521 0.32277,2.68481 0.2812,2.73245 -0.29094,0.33335 -5.43373,-5.79327 -8.51235,-10.14078 -6.07518,-8.57914 -8.97462,-14.67808 -10.06263,-21.16666 l -0.22183,-1.32292 -0.487396,2.79781 c -0.768755,4.41288 -0.34597,14.49351 0.792586,18.89802 0.21744,0.84115 -1.272768,-0.96382 -3.362448,-4.07267 -3.065381,-4.56042 -5.331149,-9.8827 -6.478535,-15.21807 -0.937511,-4.35944 -0.73927,-11.65016 0.438787,-16.13729 0.269115,-1.02503 0.45079,-1.90221 0.403724,-1.94927 -0.197327,-0.19733 -2.713747,3.95867 -3.883349,6.41355 -2.01948,4.23869 -3.867608,10.68285 -4.362391,15.21103 -0.182955,1.67436 -0.195572,1.69668 -0.609319,1.07763 -1.421024,-2.12612 -3.474265,-8.23757 -4.133902,-12.30452 -0.829967,-5.11709 -0.255632,-13.26563 1.201041,-17.0401 0.301792,-0.78199 0.507395,-1.46312 0.456896,-1.51362 -0.317621,-0.31762 -7.05272,6.89045 -9.334447,9.98996 -0.648885,0.88144 -1.178772,1.4407 -1.177528,1.24279 0.0012,-0.19791 0.122754,-1.72905 0.270021,-3.40254 0.7697,-8.74663 3.163851,-15.24275 8.898002,-24.14323 0.914083,-1.41883 1.591797,-2.57969 1.506031,-2.57969 -0.08576,0 -1.421694,1.24436 -2.968731,2.76523 -4.615454,4.53741 -8.164932,7.10897 -12.76428,9.24759 -3.333188,1.54988 -3.413632,1.52532 -1.771709,-0.54092 3.561981,-4.48249 6.924202,-10.29811 9.615152,-16.63127 1.567993,-3.69028 3.519882,-7.746387 4.712317,-9.792387 l 0.926849,-1.5903 -1.964952,0.95845 c -2.134787,1.04129 -4.629634,1.87248 -7.122421,2.37292 -1.837752,0.36894 -7.30521,0.46965 -8.459212,0.15582 -0.778847,-0.21181 -0.768603,-0.22315 1.081407,-1.19663 3.345575,-1.76047 6.254938,-4.07386 13.990988,-11.124997 2.620145,-2.38817 5.507196,-4.93893 6.415669,-5.66837 0.908473,-0.72943 1.619505,-1.3585 1.580072,-1.39794 -0.03943,-0.0394 -0.544605,0.0379 -1.122603,0.17196 -4.014743,0.93081 -10.036439,-0.46746 -12.959787,-3.00932 l -1.055701,-0.91794 0.79375,-0.17508 c 2.079697,-0.45872 4.78447,-1.62917 6.409341,-2.77355 3.368797,-2.37259 7.606858,-7.36067 9.076263,-10.6825 0.487024,-1.101 0.505432,-1.399 0.234405,-3.79477 -0.934149,-8.25747 1.711456,-23.09808 6.000125,-33.657908 1.546641,-3.808233 5.894502,-12.730574 6.203616,-12.730574 0.100346,0 0.252576,0.506016 0.338288,1.124479 0.513031,3.701811 2.572651,8.721181 5.136151,12.516975 3.95393,5.854615 8.53952,9.846496 14.75598,12.84546 1.58877,0.766463 2.7995,1.5751 3.63802,2.429814 0.69122,0.704573 1.25523,1.24334 1.25335,1.197261 -0.002,-0.04608 -0.23588,-0.8253 -0.52001,-1.7316 -0.28413,-0.9063 -0.6963,-2.692237 -0.91593,-3.96875 -0.42167,-2.450864 -0.84395,-7.480306 -0.62805,-7.480306 0.0701,0 0.57566,0.6509 1.12357,1.446444 1.4097,2.046824 4.39937,4.799074 7.171314,6.60181 1.30431,0.848267 3.20107,2.0931 4.21502,2.766295 l 1.84354,1.223992 2.43845,-1.5875 c 1.34115,-0.873125 3.18387,-2.05634 4.09494,-2.629366 2.04454,-1.285938 5.06139,-4.121177 6.45823,-6.069448 0.57661,-0.804237 1.14661,-1.467963 1.26668,-1.474947 0.12006,-0.007 0.14148,1.088631 0.0476,2.434699 -0.27387,3.926317 -0.97255,7.715016 -1.86629,10.120312 -0.10814,0.291041 0.2363,0.03537 0.76542,-0.56816 0.70021,-0.798688 1.9707,-1.615713 4.66831,-3.002104 6.133,-3.151949 10.29739,-6.855192 13.95576,-12.410367 2.73804,-4.157675 4.26978,-7.77431 5.17957,-12.229637 l 0.34462,-1.687647 2.26963,4.497916 c 3.96985,7.867382 5.84171,12.8251 7.74206,20.505207 1.61647,6.532828 2.34708,11.83444 2.35178,17.06562 0.002,2.488 -0.13114,4.77829 -0.32352,5.55513 -0.32274,1.30329 -0.31188,1.35226 0.77545,3.49668 0.61525,1.21341 2.01382,3.26083 3.16359,4.63133 3.70924,4.42132 7.57778,7.11948 11.32222,7.89682 l 1.43638,0.29819 -1.28689,0.9232 c -2.82826,2.02896 -5.32967,2.92443 -8.82752,3.16011 -1.23692,0.0833 -2.78151,0.0276 -3.43241,-0.12394 -0.65089,-0.15151 -1.21427,-0.24466 -1.25194,-0.20699 -0.0377,0.0377 1.20926,1.21143 2.77095,2.60835 1.5617,1.39692 4.57768,4.13226 6.70218,6.07854 5.0806,4.654357 9.01983,7.793277 11.63116,9.268117 2.38058,1.34452 2.37629,1.35211 -0.94181,1.66769 -4.33686,0.41247 -10.27297,-0.95707 -13.91223,-3.20975 l -0.94764,-0.58658 2.14979,4.27467 c 1.18239,2.351077 2.96062,6.149847 3.95164,8.441717 2.50629,5.79618 6.33798,12.23105 9.85219,16.54558 l 0.7077,0.86887 -0.69923,-0.26585 c -1.29717,-0.49318 -6.00815,-2.91795 -7.39689,-3.80723 -2.02469,-1.2965 -4.42316,-3.34216 -7.94252,-6.7742 l -3.12468,-3.04715 2.17144,3.5648 c 4.16404,6.83603 6.49161,12.44277 7.64359,18.41218 0.5362,2.77854 1.03294,8.56825 0.73513,8.56825 -0.0801,0 -1.15457,-1.28155 -2.38766,-2.84788 -2.1915,-2.78377 -7.76256,-8.79378 -8.1515,-8.79378 -0.10775,0 0.0174,0.44648 0.27822,0.99218 0.26077,0.54571 0.72832,2.00422 1.03899,3.24115 1.6741,6.66522 1.36375,13.58344 -0.92787,20.68392 -0.83972,2.60182 -2.98897,7.57793 -3.0083,6.96504 -0.0256,-0.81174 -0.89823,-5.59238 -1.35228,-7.40834 -0.76021,-3.0405 -2.03824,-6.84352 -3.0463,-9.06485 -0.82206,-1.81147 -3.71902,-6.94244 -3.91972,-6.94244 -0.051,0 0.0594,0.44649 0.24527,0.99219 1.16928,3.43279 1.55898,11.35346 0.77937,15.84034 -1.10324,6.34938 -5.36967,15.40421 -9.39741,19.94455 -0.75638,0.85264 -0.80892,0.87361 -0.66287,0.26459 1.04087,-4.34027 1.40651,-15.76514 0.61815,-19.31459 -0.34414,-1.54939 -0.39938,-1.64114 -0.55758,-0.92604 -1.26445,5.71558 -2.03954,7.96164 -4.10874,11.90625 -1.58022,3.01245 -5.16938,8.50401 -8.16802,12.49739 -2.40261,3.19963 -6.59582,7.74553 -6.2883,6.81719 0.40851,-1.23315 1.45056,-14.79441 1.10732,-14.41046 -0.0605,0.0676 -0.61201,1.31359 -1.22566,2.7688 -2.19456,5.20422 -3.9735,8.07296 -11.42217,18.41949 l -4.11756,5.71948 z m 7.69733,-43.59968 c 2.68324,-0.3774 5.31904,-1.74318 6.99666,-3.62543 0.73574,-0.82548 1.33772,-1.58266 1.33772,-1.68261 0,-0.1 -0.56555,-0.26165 -1.25678,-0.35933 -0.69122,-0.0977 -2.65765,-0.46839 -4.36983,-0.82379 -3.96207,-0.82242 -6.38521,-0.81935 -10.38657,0.0132 -1.743014,0.36265 -3.526294,0.66867 -3.962854,0.68006 -1.87776,0.049 -1.9081,0.27912 -0.26998,2.04847 2.95041,3.1868 6.953434,4.44684 11.911634,3.74946 z m -7.07981,-10.82596 c 1.38835,-0.60864 3.3574,-2.45153 3.1819,-2.97803 -0.0513,-0.15394 -0.69946,-0.506 -1.44033,-0.78237 -1.70253,-0.6351 -3.798804,-2.69281 -4.779524,-4.69158 -0.55897,-1.13923 -0.74685,-1.94796 -0.80609,-3.46982 -0.0425,-1.09141 0.031,-2.14489 0.16331,-2.34108 0.39136,-0.58033 3.541054,-1.31412 6.456584,-1.5042 3.25697,-0.21233 7.50498,0.21688 9.09128,0.91858 0.95814,0.42383 1.16168,0.65126 1.31519,1.46955 0.64687,3.44809 -1.77219,7.7068 -5.34668,9.41274 -0.92503,0.44148 -1.68187,0.91532 -1.68187,1.05299 0,0.13767 0.41771,0.71267 0.92825,1.27777 1.22695,1.35809 3.22122,2.19772 5.59255,2.35461 3.37429,0.22324 5.9096,-0.71257 7.96156,-2.93868 1.80435,-1.95749 2.32479,-3.22775 4.03156,-9.84006 0.58696,-2.27395 1.46604,-4.98891 1.95352,-6.03324 0.8678,-1.85909 3.14908,-5.20919 3.54295,-5.20288 0.39379,0.006 2.45628,1.30017 3.65351,2.29197 2.14586,1.77764 4.70367,5.53912 5.52678,8.12761 0.31222,0.98186 0.34871,0.2545 0.12042,-2.40038 -0.27755,-3.22779 -0.91547,-5.06531 -2.51086,-7.23249 -1.27185,-1.72769 -2.52723,-2.73756 -5.33483,-4.29152 l -1.7852,-0.98809 1.76266,-0.004 c 3.38651,-0.008 7.63635,1.17095 10.10065,2.80175 0.55964,0.37035 1.06496,0.62594 1.12293,0.56797 0.058,-0.058 -0.18868,-0.69197 -0.54812,-1.40889 -0.72031,-1.43667 -2.83928,-3.77362 -4.09331,-4.51439 -0.4423,-0.26128 -0.80419,-0.54304 -0.80419,-0.62613 0,-0.3342 4.19807,0.24824 5.59483,0.77623 2.89069,1.09271 6.696,4.10299 9.05334,7.16186 l 0.71367,0.92604 -0.17577,-1.45521 c -0.50535,-4.18386 -1.7962,-7.24977 -4.31366,-10.24542 -2.65961,-3.16479 -6.52252,-5.129157 -10.88348,-5.534457 -1.01255,-0.0941 -1.84101,-0.2645 -1.84101,-0.37865 0,-0.22515 4.31522,-1.24799 5.82083,-1.37972 l 0.92604,-0.081 -0.79375,-0.33751 c -1.42451,-0.6057 -3.38261,-0.86098 -6.68381,-0.87135 l -3.24424,-0.0102 0.99528,-0.80463 c 3.25971,-2.63532 9.00546,-5.889227 11.8233,-6.695727 1.69707,-0.48572 5.10489,-0.6475 6.34995,-0.30144 0.66437,0.18466 0.72802,0.1599 0.45004,-0.17504 -0.6445,-0.77658 -4.97423,-3.47879 -6.93662,-4.32919 -4.02915,-1.74603 -5.6252,-2.0324 -11.35286,-2.03694 -4.90478,-0.004 -6.96576,0.22601 -9.12812,1.01828 -1.0531,0.38585 2.54926,-2.75605 4.25129,-3.70789 1.9584,-1.09519 5.65519,-2.35883 7.65496,-2.61661 0.7276,-0.0938 1.62057,-0.23901 1.98437,-0.32271 l 0.66146,-0.15217 -0.79375,-0.23228 c -3.0595,-0.89533 -8.99311,-0.74612 -12.39927,0.3118 -3.25611,1.01132 -7.49562,4.16689 -9.20829,6.85395 -0.41235,0.64696 -0.74973,1.04817 -0.74973,0.89158 0,-0.87974 1.8045,-5.63645 2.80278,-7.38821 0.64086,-1.12456 1.12274,-2.08712 1.07084,-2.13901 -0.23623,-0.23624 -4.96536,5.07477 -6.41445,7.20368 -2.80973,4.12788 -5.8435,10.10155 -7.23847,14.252967 l -0.70263,2.09103 -0.88543,-2.48791 c -2.61905,-7.359147 -7.348244,-15.019397 -12.071754,-19.553527 -0.98539,-0.94589 -1.58688,-1.42214 -1.33663,-1.05833 0.96679,1.40551 2.80565,5.51453 3.31536,7.40833 l 0.53408,1.98437 -0.704,-0.92604 c -1.17047,-1.53963 -3.30787,-3.55063 -4.9736,-4.6795 -3.76322,-2.55035 -6.47505,-3.35624 -11.2315,-3.33775 -1.8594,0.007 -4.11812,0.18449 -5.15938,0.4049 l -1.85208,0.39204 1.32292,0.17839 c 2.31943,0.31276 6.00533,1.25085 7.48371,1.90466 0.78737,0.34821 2.22361,1.16131 3.19164,1.80688 1.90606,1.27114 4.01264,3.28984 3.08298,2.95437 -2.17359,-0.78434 -3.81602,-1.02339 -7.80521,-1.13598 -3.73769,-0.1055 -4.75739,-0.0426 -7.08936,0.43721 -2.94588,0.60613 -5.94926,1.69559 -8.256472,2.99498 -1.499281,0.84438 -4.570708,3.12229 -4.417084,3.27591 0.04758,0.0476 0.494554,-0.0305 0.993278,-0.17355 2.37109,-0.68002 6.01726,-0.0307 9.404976,1.67483 2.343572,1.17986 6.330432,3.690517 8.543242,5.379957 l 1.16296,0.88789 -3.32145,-0.0278 c -3.14035,-0.0263 -7.603422,0.60161 -7.603422,1.06964 0,0.0947 0.446485,0.19527 0.992188,0.22342 1.349289,0.0696 5.888174,1.16389 5.750644,1.38644 -0.0608,0.0984 -0.97775,0.25229 -2.03764,0.342 -5.628901,0.47645 -10.386642,3.848077 -13.008842,9.218867 -1.145551,2.34632 -2.026489,5.54598 -2.006717,7.28861 l 0.0084,0.73876 0.561181,-0.79375 c 1.028969,-1.4554 4.858338,-5.01598 6.334714,-5.89007 2.212751,-1.31006 4.343453,-1.97639 6.713382,-2.09946 l 2.11667,-0.10992 -0.91283,0.47038 c -1.37092,0.70645 -3.544712,3.01192 -4.334768,4.59736 -0.385169,0.77293 -0.657221,1.44842 -0.60456,1.50108 0.05266,0.0527 0.676565,-0.2649 1.386451,-0.70568 2.394457,-1.48678 6.765467,-2.6644 9.846787,-2.65288 l 1.49808,0.006 -1.58172,0.81697 c -5.46428,2.82235 -7.62254,6.24546 -7.962746,12.62932 l -0.121783,2.28521 0.406679,-1.05833 c 1.5238,-3.96553 3.93097,-7.03547 7.1727,-9.14754 1.68181,-1.09574 1.70958,-1.10326 2.25771,-0.61113 0.84018,0.75433 2.57474,3.40152 3.29294,5.0255 0.35144,0.79467 1.06538,2.95863 1.58654,4.8088 1.75499,6.23038 2.29294,7.75153 3.28304,9.28342 1.21855,1.88532 3.04404,3.4125 4.84793,4.0557 1.93258,0.68909 5.5945,0.54188 7.520146,-0.30232 z m -3.106644,-15.98189 c 0,-0.0761 0.30897,-0.8508 0.68661,-1.72154 0.6147,-1.41739 0.82104,-1.64101 1.970394,-2.13545 3.12813,-1.34569 7.12633,-1.31803 10.15879,0.0703 1.43663,0.65771 1.99363,1.33289 2.35905,2.85957 l 0.16787,0.70131 -1.3875,-0.74223 c -1.95881,-1.04783 -5.12738,-1.69652 -7.23305,-1.48078 -2.29327,0.23495 -4.94269,1.08989 -5.916294,1.90913 -0.44323,0.37295 -0.80587,0.61582 -0.80587,0.53971 z m -1.82617,-17.93885 c -0.63169,-3.33575 -1.73026,-5.938967 -3.13441,-7.427447 -0.3731,-0.3955 -1.781,-1.26998 -3.12867,-1.9433 -2.79203,-1.39495 -4.48843,-2.9267 -7.99556,-7.219547 l -2.1942,-2.68576 1.92961,0.006 c 2.73588,0.008 6.29623,0.86629 8.85703,2.13484 1.68475,0.83459 2.57916,1.50356 3.94255,2.94883 3.5424,3.755117 4.21523,7.437717 2.54365,13.922084 l -0.50161,1.94585 z m -3.73008,-12.255397 c 0,-0.626107 -1.42392,-2.058957 -2.97317,-2.991817 -1.45236,-0.87451 -3.11433,-1.49772 -3.10976,-1.1661 0.007,0.49832 1.67572,3.00532 2.25186,3.38283 1.55543,1.019147 3.83107,1.479557 3.83107,0.775087 z m 21.869144,11.299707 c -1.32697,-6.896737 -0.64755,-9.963377 3.01996,-13.630884 1.95718,-1.95718 4.21727,-3.18594 7.39006,-4.01782 2.09075,-0.54817 6.87916,-0.8715 6.87916,-0.4645 0,0.15285 -0.0934,0.31759 -0.20747,0.3661 -0.1141,0.0485 -1.17432,1.28736 -2.35604,2.75299 -2.86058,3.547877 -4.28562,4.778317 -7.47756,6.456447 -2.73149,1.43605 -3.61234,2.21409 -4.51927,3.99182 -0.61929,1.21391 -1.84382,5.352157 -1.84382,6.231117 0,1.38718 -0.46379,0.50403 -0.88502,-1.68527 z m 7.92265,-11.680764 c 0.59648,-0.27089 1.31666,-0.83382 1.6004,-1.25096 0.49475,-0.72735 1.15155,-2.08448 1.15155,-2.37941 0,-0.24665 -1.68293,0.21168 -2.73717,0.74545 -1.07779,0.5457 -3.34824,2.65969 -3.34824,3.117517 0,0.44723 2.16992,0.29582 3.33346,-0.232597 z m 23.21827,-23.81854 c 1.82339,-2.53803 3.12456,-5.6066 3.73891,-8.81751 0.52077,-2.72183 0.73992,-7.11773 0.45831,-9.19313 l -0.23336,-1.719795 -0.53316,1.129265 -0.53317,1.12926 -0.15981,-2.584472 c -0.0879,-1.421458 -0.3447,-3.458106 -0.57067,-4.525883 -0.39555,-1.869122 -1.54759,-5.58254 -1.96122,-6.321643 -0.10992,-0.196422 -0.14806,2.002979 -0.0847,4.887558 0.12939,5.894904 -0.15517,8.80516 -1.17732,12.04083 -0.94599,2.9946 -2.04638,5.17836 -3.54898,7.04306 l -1.29675,1.60926 1.3145,-0.51813 c 0.72297,-0.28497 1.80303,-0.82652 2.40011,-1.20344 0.59709,-0.37693 1.15089,-0.62005 1.23067,-0.54028 0.22034,0.22034 0.22885,7.04807 0.01,8.02909 -0.10551,0.47294 -0.14644,0.8599 -0.091,0.8599 0.0555,0 0.52241,-0.58678 1.03765,-1.30394 z m -78.541459,-2.86325 c -4.9e-4,-2.14643 0.118171,-4.10174 0.263692,-4.34512 0.237718,-0.39759 0.412342,-0.35189 1.719791,0.45007 0.800365,0.49092 1.810202,0.97777 2.244082,1.08189 l 0.78887,0.1893 -1.086849,-1.23473 c -2.173565,-2.4693 -3.763256,-6.26163 -4.474766,-10.67491 -0.444939,-2.759816 -0.585177,-8.698721 -0.283148,-11.990977 0.172892,-1.884601 0.161349,-1.947957 -0.229578,-1.260083 -1.261895,2.22043 -2.429413,7.504676 -2.587493,11.711125 l -0.05966,1.587495 -0.58549,-1.17171 c -0.83995,-1.680964 -0.969042,-1.028387 -0.798618,4.03713 0.210305,6.25088 1.197276,9.68806 3.98256,13.86948 0.605831,0.9095 1.102858,1.65364 1.104505,1.65364 0.0016,0 0.0026,-1.75617 0.0021,-3.9026 z m 7.690025,-7.4964 c -0.66646,-2.24422 -0.5712,-2.47729 0.57731,-1.41245 0.97822,0.90696 4.53252,2.87702 4.7672,2.64235 0.0663,-0.0663 -0.29504,-0.63318 -0.80309,-1.25962 -0.89028,-1.09773 -1.78733,-2.67345 -2.32085,-4.07672 l -0.25502,-0.67076 0.78393,0.55821 c 0.70912,0.50493 3.70905,1.69171 3.86659,1.52962 0.0357,-0.0368 -0.65155,-0.9598 -1.52729,-2.05121 -3.27805,-4.085351 -6.4113,-9.248605 -7.49581,-12.352277 l -0.61365,-1.756169 -0.21845,1.034954 c -0.386108,1.829255 -0.23144,8.0052 0.25688,10.257522 0.55562,2.56271 0.55683,2.70426 0.0194,2.25825 -0.38913,-0.32295 -0.41285,-0.26794 -0.24269,0.56291 0.40004,1.95325 3.05703,6.69579 3.502,6.25082 0.0651,-0.0651 -0.0683,-0.74706 -0.29648,-1.51543 z m 64.505834,-1.80075 c 0.36839,-0.8209 0.75079,-1.99901 0.84978,-2.61804 0.15246,-0.95342 0.11701,-1.10133 -0.23187,-0.96745 -0.36748,0.14101 -0.373,0.029 -0.0512,-1.0402 0.7201,-2.392745 0.99656,-6.267154 0.66616,-9.335918 -0.16938,-1.573218 -0.34426,-2.896689 -0.38862,-2.941046 -0.0444,-0.04436 -0.28443,0.549055 -0.5335,1.318693 -1.11916,3.458289 -5.01305,9.881911 -7.94533,13.107151 -0.82689,0.90951 -1.45358,1.65365 -1.39264,1.65365 0.49815,0 3.65521,-1.22312 4.2497,-1.64643 l 0.74965,-0.5338 -0.95202,1.89046 c -0.52361,1.03975 -1.36575,2.34841 -1.87142,2.90812 -0.50566,0.55971 -0.91939,1.09079 -0.91939,1.18017 0,0.26451 2.69231,-0.86425 3.81669,-1.60016 0.5712,-0.37386 1.38213,-1.0512 1.80204,-1.5052 l 0.76349,-0.82545 -0.18336,0.79375 c -0.17372,0.75201 -0.58495,2.00404 -1.04284,3.175 -0.47893,1.22478 1.9893,-1.61973 2.6147,-3.0133 z"
       id="path1" /></g></svg>
